<svg xmlns="http://www.w3.org/2000/svg" viewBox="0 0 277.3 76"><path d="M0 42.7h1.6c2 1.6 12.1 9.6 26.7 6.9 5.9-1.1 7.2-6.1 3.9-8.6-3.5-2.6-8.6-2.6-17.5-5.1-17.8-5-16.1-20.8-10-26.9 10.9-10.6 30.1-8 42-3.5v13.1H45c-5-7.7-31.8-9.7-29.3.3 1.2 4.7 9.3 3.4 23.8 8.9 4.2 1.6 7.5 4.4 8.7 9 1.8 6.8.3 12.8-5.1 17.5-4.4 3.9-9.8 5.5-15.6 6.1C12 61.9 0 56.3 0 56.3V42.7zm67.6-26.1s-.1 17.4-.1 25.2c0 4.1 1.2 7 5 7.8 6.3 1.3 10.5-2.3 10.5-2.3l.1-30.7h13.6v42.8H83.1v-4.6s-5.2 4.6-11.2 5.7c-10.8 1.9-18.2-3-18.3-16.3V16.7h14zm145.3 0h13.7s.2 26.2.6 28.4c.5 3 2.4 4.4 5.4 4.7 3 .3 5.8-.4 8.5-1.7 1-.5 1.4-.8 1.4-.8V16.7h13.6v43h-13.6V55s-5.1 4.6-11.2 5.7c-3.1.5-6.2.4-9.2-.5-8.3-2.6-8.9-10.1-8.9-13.9l-.3-29.7zm-107.3 0h13.6V23s5.2-7.5 17.5-6.5v13.3s-13.6-1.4-17.4 1.3v28.5h-13.6v-43zm98.7-6.2h-13.5V0h13.5v10.4zM182 16.6h-13.4l-.3 1.8c-3.6-1.6-5.7-2.4-9.7-2.8-9.7-1-18.1 4.7-20.5 14.1-1.7 6.3-1.3 12.6.9 18.8 3.8 10.7 18.1 13.7 27.9 7.1.4-.3.9-.6 1.4-.9 0 7.1-2.2 10.2-8.3 11.1-8.8 1.1-16.6-2.6-16.6-2.6h-1.6v10.7s13.8 4 25.5 1.1c10.5-2.6 14.6-9.3 14.7-20.2.1-12.1 0-38.2 0-38.2zm-13.7 19.8v9.9s-4.8 4-11.4 1.8c-2.4-.8-4.1-2.2-4.9-4.7-1.1-3.7-1.2-7.5-.1-11.2 1.2-3.9 3.8-6.6 7.8-6.6s8.5.8 8.5.8.1 7.1.1 10zm22.6-19.8h13.5v42.9h-13.5zm86.4 34.1c0 4.9-3.9 8.8-8.9 8.8s-9-3.9-9-8.8c0-4.8 4-8.7 9-8.7 5.1 0 8.9 3.9 8.9 8.7zm-15.6 0c0 3.9 2.9 7 6.8 7 3.8 0 6.6-3.1 6.6-6.9 0-3.9-2.8-7-6.7-7-3.9 0-6.7 3.1-6.7 6.9zm5.3 4.6h-2v-8.7c1.6-.3 4.9-.5 6.4.4 1.2.9 1.4 3.2-1 3.9v.1c.8.3 1.3 1 1.6 2.1.3 1.3.4 1.9.6 2.2h-2.2c-.3-.3-.4-1.1-.7-2.1-.2-1.5-1.4-1.4-2.8-1.4v3.5zm.1-4.9c1 0 3 .1 3-1.3 0-1.5-2-1.5-3-1.2v2.5z"/></svg>